<?xml version="1.0" encoding="UTF-8"?>
<svg version="1.1" xmlns="http://www.w3.org/2000/svg" width="2600" height="1000">
<path d="M0 0 C858 0 1716 0 2600 0 C2600 330 2600 660 2600 1000 C1742 1000 884 1000 0 1000 C0 670 0 340 0 0 Z " fill="#EEEAE2" transform="translate(0,0)"/>
<path d="M0 0 C4.31270236 0.14019551 8.62510461 0.28818192 12.9375 0.4375 C14.14986328 0.47681641 15.36222656 0.51613281 16.61132812 0.55664062 C35.21194698 1.21194698 35.21194698 1.21194698 37 3 C38.37851844 3.18025415 39.7653096 3.29801174 41.15258789 3.38891602 C42.47384422 3.4788961 42.47384422 3.4788961 43.8217926 3.57069397 C44.77907761 3.63115402 45.73636261 3.69161407 46.72265625 3.75390625 C47.69786728 3.81907944 48.67307831 3.88425262 49.67784119 3.95140076 C52.80579166 4.1594364 55.93412029 4.36103225 59.0625 4.5625 C61.1777623 4.70205136 63.29299713 4.84201977 65.40820312 4.98242188 C70.60515917 5.32646217 75.80244029 5.66521024 81 6 C81 6.66 81 7.32 81 8 C76.60418124 8.02950823 72.2083886 8.04696682 67.8125 8.0625 C66.58595703 8.07087891 65.35941406 8.07925781 64.09570312 8.08789062 C53.88044501 8.11484381 43.76624519 8.04452013 33.8125 5.5625 C22.75740575 2.99096154 11.2965669 2.7096986 0 2 C0 1.34 0 0.68 0 0 Z " fill="#E0D8CE" transform="translate(772,348)"/>
<path d="M0 0 C4.31270236 0.14019551 8.62510461 0.28818192 12.9375 0.4375 C14.14986328 0.47681641 15.36222656 0.51613281 16.61132812 0.55664062 C25.7184882 0.87748908 34.22976266 1.35238118 43 4 C44.99488234 4.36270588 46.9937811 4.70640699 49 5 C49 5.33 49 5.66 49 6 C47.04200257 6.05524131 45.08352063 6.093338 43.125 6.125 C42.03445313 6.14820313 40.94390625 6.17140625 39.8203125 6.1953125 C36.80508021 6.04115952 34.3221571 5.6989248 31.40625 5.0625 C25.10939844 3.71616122 18.78904379 3.31118358 12.375 2.875 C11.18003906 2.78863281 9.98507812 2.70226562 8.75390625 2.61328125 C5.83629006 2.40321288 2.91839458 2.19890877 0 2 C0 1.34 0 0.68 0 0 Z " fill="#D8CFC4" transform="translate(772,348)"/>
<path d="M0 0 C-9.81283903 4.6212769 -19.86109982 8.49951135 -30.03515625 12.2421875 C-31.53450303 12.82046439 -33.01914843 13.43700574 -34.49609375 14.0703125 C-39.16462976 16.05426688 -42.81575103 17.54571042 -48 17 C-48 16.67 -48 16.34 -48 16 C-47.41734375 15.84144531 -46.8346875 15.68289063 -46.234375 15.51953125 C-40.27379458 13.82320255 -34.63411651 11.68804724 -28.9375 9.25390625 C-25.51017019 7.79091041 -22.0537625 6.41434351 -18.5859375 5.05078125 C-16.66080696 4.26851521 -14.75152708 3.44701634 -12.8515625 2.60546875 C-11.78679688 2.13753906 -10.72203125 1.66960937 -9.625 1.1875 C-8.64789062 0.74792969 -7.67078125 0.30835938 -6.6640625 -0.14453125 C-3.8742431 -1.04038235 -2.68923672 -1.03873362 0 0 Z " fill="#E0DAD2" transform="translate(945,288)"/>
<path d="M0 0 C2.85179471 0.35962898 3.89395384 0.88985856 5.921875 2.99609375 C6.52515625 3.80175781 7.1284375 4.60742188 7.75 5.4375 C8.36359375 6.24058594 8.9771875 7.04367187 9.609375 7.87109375 C11 10 11 10 11 12 C11.61875 12.0825 12.2375 12.165 12.875 12.25 C15 13 15 13 16.25 15.0625 C16.4975 15.701875 16.745 16.34125 17 17 C17.66 17 18.32 17 19 17 C19 17.66 19 18.32 19 19 C19.66 19.33 20.32 19.66 21 20 C20.34 20.66 19.68 21.32 19 22 C13.05936019 17.1645955 7.71128953 12.05737226 3 6 C3 5.34 3 4.68 3 4 C2.01 4 1.02 4 0 4 C0 2.68 0 1.36 0 0 Z " fill="#DBD4C7" transform="translate(2187,648)"/>
<path d="M0 0 C2.64 0.33 5.28 0.66 8 1 C6.84826645 3.46800047 5.95216435 5.04783565 4 7 C3.46146802 9.29089796 3.11274024 11.58034054 2.7578125 13.90625 C2 16 2 16 -0.0703125 17.28125 C-0.70710937 17.5184375 -1.34390625 17.755625 -2 18 C-1.67 16.88625 -1.34 15.7725 -1 14.625 C0.24429211 9.73545777 0.18495088 5.01422385 0 0 Z " fill="#E3D8CB" transform="translate(817,712)"/>
<path d="M0 0 C6.6 0 13.2 0 20 0 C20 0.66 20 1.32 20 2 C21.32 2.33 22.64 2.66 24 3 C21.31222198 3.0544207 18.62556788 3.09387266 15.9375 3.125 C15.18533203 3.14175781 14.43316406 3.15851562 13.65820312 3.17578125 C8.70672291 3.21865121 4.69585549 2.58399375 0 1 C0 0.67 0 0.34 0 0 Z " fill="#D6CFC2" transform="translate(2247,715)"/>
<path d="M0 0 C2.97 0 5.94 0 9 0 C9 0.33 9 0.66 9 1 C7.02 1 5.04 1 3 1 C3 1.66 3 2.32 3 3 C3.69480469 2.82597656 4.38960937 2.65195312 5.10546875 2.47265625 C8.32656869 1.94667367 11.06909262 2.11672345 14.3125 2.4375 C15.91544922 2.59025391 15.91544922 2.59025391 17.55078125 2.74609375 C18.35902344 2.82988281 19.16726563 2.91367187 20 3 C20 3.33 20 3.66 20 4 C15.38 4 10.76 4 6 4 C6 4.66 6 5.32 6 6 C4.68 6 3.36 6 2 6 C2 5.34 2 4.68 2 4 C1.34 3.67 0.68 3.34 0 3 C0 2.01 0 1.02 0 0 Z " fill="#E6DCD1" transform="translate(769,347)"/>
<path d="M0 0 C5.24972347 4.10037573 9.20962911 8.52964787 13 14 C10 14 10 14 8.1875 12.4375 C7.465625 11.633125 6.74375 10.82875 6 10 C5.47535156 9.4328125 4.95070313 8.865625 4.41015625 8.28125 C0 3.38338235 0 3.38338235 0 0 Z " fill="#DBD3C3" transform="translate(2214,672)"/>
<path d="M0 0 C0.80566406 0.00322266 1.61132812 0.00644531 2.44140625 0.00976562 C3.70404297 0.02233398 3.70404297 0.02233398 4.9921875 0.03515625 C5.84167969 0.03966797 6.69117187 0.04417969 7.56640625 0.04882812 C9.66669659 0.06062751 11.7669508 0.07856319 13.8671875 0.09765625 C10.95702968 3.00781407 7.77955533 2.63562233 3.8671875 2.84765625 C3.12984375 2.90308594 2.3925 2.95851563 1.6328125 3.015625 C-0.28578143 3.13116077 -2.21090367 3.12250852 -4.1328125 3.09765625 C-4.7928125 2.43765625 -5.4528125 1.77765625 -6.1328125 1.09765625 C-3.8362755 -0.05061225 -2.54968083 -0.0179555 0 0 Z " fill="#D7D0C2" transform="translate(2283.1328125,713.90234375)"/>
<path d="M0 0 C3.6382224 3.6382224 3.05453505 9.14736425 3.09765625 14.05859375 C3.0910885 15.85158877 3.07928047 17.64457148 3.0625 19.4375 C3.05798828 20.35982422 3.05347656 21.28214844 3.04882812 22.23242188 C3.03713938 24.48835048 3.02075455 26.74413967 3 29 C2.34 29.33 1.68 29.66 1 30 C1.01160156 28.75863281 1.02320313 27.51726562 1.03515625 26.23828125 C1.04453868 24.59635568 1.0536384 22.95442847 1.0625 21.3125 C1.07087891 20.49587891 1.07925781 19.67925781 1.08789062 18.83789062 C1.10451778 14.73098277 0.93208846 11.01963148 0 7 C-0.03824623 4.66698014 -0.04574284 2.33288492 0 0 Z " fill="#F4F1EB" transform="translate(167,403)"/>
<path d="M0 0 C2.81457894 0.44770609 5.62619129 0.90757217 8.4375 1.375 C9.23994141 1.50132812 10.04238281 1.62765625 10.86914062 1.7578125 C12.92520723 2.10482796 14.96490131 2.54590428 17 3 C17.33 3.66 17.66 4.32 18 5 C14.625 5.625 14.625 5.625 11 6 C10.34 5.34 9.68 4.68 9 4 C7.47943382 3.40165446 5.93387912 2.86493344 4.375 2.375 C3.55773438 2.11460937 2.74046875 1.85421875 1.8984375 1.5859375 C0.95871094 1.29589844 0.95871094 1.29589844 0 1 C0 0.67 0 0.34 0 0 Z " fill="#CFC9C0" transform="translate(2430,832)"/>
<path d="M0 0 C2.31309705 0.11341637 4.62550185 0.24103807 6.9375 0.375 C8.86916016 0.47941406 8.86916016 0.47941406 10.83984375 0.5859375 C12.40412109 0.79089844 12.40412109 0.79089844 14 1 C14.33 1.66 14.66 2.32 15 3 C10.05 3 5.1 3 0 3 C0 2.01 0 1.02 0 0 Z " fill="#D6D0C8" transform="translate(2311,716)"/>
<path d="M0 0 C0.99 0 1.98 0 3 0 C4.54444728 4.78778657 3.64559039 9.34230555 2 14 C1.01 14.495 1.01 14.495 0 15 C0 10.05 0 5.1 0 0 Z " fill="#E2DACE" transform="translate(531,203)"/>
<path d="M0 0 C0 3.39593478 -0.52165948 4.06619881 -2.5 6.6875 C-2.9640625 7.31011719 -3.428125 7.93273437 -3.90625 8.57421875 C-4.2671875 9.04472656 -4.628125 9.51523437 -5 10 C-6 8 -7 6 -8 4 C-7.34 4 -6.68 4 -6 4 C-5.67 3.34 -5.34 2.68 -5 2 C-4.34 2 -3.68 2 -3 2 C-2.01 1.34 -1.02 0.68 0 0 Z " fill="#D3CEC8" transform="translate(2375,730)"/>
<path d="M0 0 C-1.17578125 1.51953125 -1.17578125 1.51953125 -3 3 C-5.48046875 3.07421875 -5.48046875 3.07421875 -8.1875 2.6875 C-9.53908203 2.50767578 -9.53908203 2.50767578 -10.91796875 2.32421875 C-11.94857422 2.16373047 -11.94857422 2.16373047 -13 2 C-13 1.67 -13 1.34 -13 1 C-11.39796533 0.63631108 -9.79325797 0.28438048 -8.1875 -0.0625 C-7.29417969 -0.25972656 -6.40085937 -0.45695312 -5.48046875 -0.66015625 C-3 -1 -3 -1 0 0 Z " fill="#E5DED5" transform="translate(860,352)"/>
<path d="M0 0 C2.64 0.33 5.28 0.66 8 1 C8.33 1.99 8.66 2.98 9 4 C7.35 4.33 5.7 4.66 4 5 C4 4.34 4 3.68 4 3 C2.68 2.34 1.36 1.68 0 1 C0 0.67 0 0.34 0 0 Z " fill="#E6DED1" transform="translate(799,708)"/>
<path d="M0 0 C0.66 0 1.32 0 2 0 C1.67 2.97 1.34 5.94 1 9 C0.01 8.67 -0.98 8.34 -2 8 C-1.47731534 5.23723823 -0.89130413 2.6739124 0 0 Z " fill="#DCD5C7" transform="translate(2214,680)"/>
<path d="M0 0 C1.32 0.99 2.64 1.98 4 3 C3.34 4.98 2.68 6.96 2 9 C-0.29013653 5.5647952 -0.17842973 4.014669 0 0 Z " fill="#DBD5CC" transform="translate(154,567)"/>
<path d="M0 0 C2.31 0.66 4.62 1.32 7 2 C7 2.66 7 3.32 7 4 C5.68 4.33 4.36 4.66 3 5 C2.01 3.35 1.02 1.7 0 0 Z " fill="#D4CEC6" transform="translate(2347,724)"/>
</svg>
